# xmcd
#
# Track frame offsets: 
#        150
#        19787
#        43787
#        61475
#        80625
#        107175
#        127887
#        148787
#        177625
#        198425
#        220037
#        236350
#
# Disc length: 3373 seconds
#
# Revision: 4
# Processed by: cddbd v1.5.2PL0 Copyright (c) Steve Scherf et al.
# Submitted via: ExactAudioCopy v1.0b3
#
DISCID=ad0d2b0c
DTITLE=孟庭苇 - 鑽石金選集 1990-1994 [Disc 2]
DYEAR=1994
DGENRE=Pop
TTITLE0=風中有朵雨做的雲
TTITLE1=誰的眼淚在飛
TTITLE2=往事
TTITLE3=紫浣花
TTITLE4=你聽海是不是在笑
TTITLE5=走在雨中
TTITLE6=無聲的雨
TTITLE7=紅雨
TTITLE8=和餅乾說話的人
TTITLE9=啞啞與亞亞
TTITLE10=野百合也有春天
TTITLE11=愛你後才知道如何愛你 (雙飛雁)
EXTD=Zuan Shi Jin Xuan Ji 1990 (Golden Collection) YEAR: 1996
EXTT0=
EXTT1=
EXTT2=
EXTT3=
EXTT4=
EXTT5=
EXTT6=
EXTT7=
EXTT8=
EXTT9=
EXTT10=
EXTT11=
PLAYORDER=
